<svg width="46" height="45" viewBox="0 0 46 45" fill="none" xmlns="http://www.w3.org/2000/svg">
<g filter="url(#filter0_d_100_94)">
<mask id="mask0_100_94" style="mask-type:luminance" maskUnits="userSpaceOnUse" x="3" y="0" width="41" height="39">
<path d="M44 0V39H3V0H44Z" fill="white"/>
</mask>
<g mask="url(#mask0_100_94)">
<path fill-rule="evenodd" clip-rule="evenodd" d="M22.8594 1.21875C12.6169 1.21875 4.28125 9.14775 4.28125 18.8906C4.28125 26.5982 9.49882 33.1657 16.7459 35.5746C16.8485 35.6437 16.9711 35.6865 17.1012 35.6889C18.913 36.2531 20.8499 36.5625 22.8594 36.5625C33.1019 36.5625 41.4375 28.6335 41.4375 18.8906C41.4375 9.14775 33.1019 1.21875 22.8594 1.21875ZM22.8594 2.4375C32.3962 2.4375 40.1562 9.81904 40.1562 18.8906C40.1562 25.9961 35.3966 32.0612 28.7526 34.3606C28.6825 34.1631 28.625 33.8703 28.625 33.6703V30.4688C28.625 29.1929 27.9694 27.8027 27.3238 26.8697C30.8797 26.2984 34.9437 24.544 34.9437 17.9956C34.9437 16.2008 34.3531 14.6179 33.1895 13.2849C33.4447 12.4851 33.76 10.7974 32.8791 8.67884C32.8091 8.5098 32.6614 8.37891 32.4787 8.32181C32.2986 8.2694 30.6545 7.86234 27.2411 9.99277C25.8523 9.65238 24.3834 9.47627 22.8594 9.47152C21.3429 9.47627 19.8714 9.65238 18.4876 9.99277C15.0743 7.85996 13.4251 8.26702 13.2475 8.32181C13.0648 8.37891 12.9172 8.5098 12.8471 8.67884C11.9638 10.7998 12.2791 12.4851 12.5393 13.2849C11.3707 14.6179 10.7801 16.2008 10.7801 17.9956C10.7801 24.4845 14.7715 26.2722 18.2974 26.8672C17.8545 27.4004 17.389 28.0908 17.1838 28.793C16.273 29.0334 14.4061 29.0406 13.1524 26.9982C13.1073 26.9196 12.0113 25.0677 9.84918 24.9248C9.50638 24.9273 8.6355 24.9796 8.42529 25.6128C8.19257 26.315 9.00836 26.8482 9.3587 27.0743C9.38123 27.0886 9.41624 27.1077 9.43879 27.1196C9.47883 27.1386 10.4122 27.6052 11.1079 29.2714C11.253 29.707 12.5268 32.9896 17.0987 32.4111C17.1012 32.892 17.0987 33.1348 17.0937 33.3276V33.668C17.0937 33.8655 17.0312 34.1631 16.9611 34.3559C10.3172 32.0565 5.5625 25.9912 5.5625 18.8906C5.5625 9.81904 13.3226 2.4375 22.8594 2.4375ZM22.7042 4.26801C20.2068 4.29419 17.7369 4.92023 15.5623 6.10326C15.2545 6.26754 15.1468 6.64121 15.322 6.93164C15.4397 7.1292 15.6548 7.24108 15.8801 7.24108C15.9876 7.24108 16.0953 7.21488 16.1954 7.16016C18.8455 5.72241 21.9735 5.18445 24.9989 5.64624C25.3468 5.70099 25.6746 5.47486 25.7322 5.1416C25.7872 4.80835 25.5495 4.49652 25.2017 4.44177C24.3734 4.31561 23.5375 4.25848 22.7042 4.26801ZM27.7642 5.11066C27.5164 5.12018 27.2837 5.27014 27.1936 5.5058C27.0685 5.82239 27.2361 6.1723 27.569 6.29131C28.0244 6.45316 28.4748 6.63884 28.9153 6.84834C29.0079 6.89355 29.1055 6.915 29.203 6.915C29.4358 6.915 29.661 6.79356 29.7761 6.57936C29.9338 6.2818 29.8062 5.91284 29.4909 5.7605C29.0129 5.53199 28.5149 5.32489 28.0169 5.14874C27.9343 5.12018 27.8493 5.10827 27.7642 5.11066ZM31.8181 9.47389C32.5063 11.3996 32.0358 12.7945 31.8657 13.1896C31.7731 13.4086 31.8206 13.6586 31.9883 13.8323C33.0969 14.9868 33.6599 16.3865 33.6599 17.9956C33.6599 24.1727 29.8112 25.4128 26.0425 25.8104C25.7897 25.8365 25.577 26.0032 25.502 26.2341C25.4244 26.465 25.502 26.7173 25.6947 26.8768C26.2001 27.2886 27.3437 29.0762 27.3437 30.4688V33.6703C27.3437 33.6822 27.3462 34.2131 27.529 34.7296C26.0425 35.1271 24.4784 35.3438 22.8594 35.3438C21.2378 35.3438 19.6712 35.1247 18.1823 34.7272C18.3675 34.2083 18.3725 33.6775 18.3725 33.668L18.375 33.3418C18.3775 33.0657 18.3825 32.692 18.375 31.6851C18.3725 31.4994 18.2849 31.3281 18.1348 31.2115C17.9846 31.0972 17.7869 31.0543 17.5968 31.0924C13.295 31.9851 12.3641 29.031 12.3291 28.9072C12.3216 28.8858 12.3141 28.8668 12.3066 28.8453C11.691 27.36 10.8802 26.6031 10.3972 26.2603C11.4407 26.6102 12.0238 27.579 12.0388 27.6004C13.733 30.3592 16.5307 30.4307 17.9947 29.807C18.1974 29.7213 18.3375 29.5428 18.3675 29.3357C18.4976 28.4645 19.5036 27.3124 20.0116 26.8887C20.2018 26.7292 20.2769 26.4769 20.1993 26.2483C20.1242 26.0174 19.914 25.8508 19.6637 25.8246C15.9051 25.4176 12.0613 24.1679 12.0613 17.9956C12.0613 16.3888 12.6244 14.9868 13.738 13.8323C13.9056 13.6586 13.9532 13.4086 13.8581 13.1896C13.6879 12.7945 13.215 11.4043 13.9006 9.47627C14.4462 9.4929 15.775 9.71429 18.0121 11.1592C18.1673 11.2592 18.365 11.2901 18.5451 11.2425C19.884 10.8878 21.3779 10.6974 22.8594 10.6903C24.3458 10.6974 25.8398 10.8878 27.1811 11.2425C27.3612 11.2901 27.5564 11.2592 27.7116 11.1592C29.9613 9.70716 31.2901 9.49053 31.8181 9.47389ZM16.6934 20.9591C16.4431 20.9306 16.1903 21.0401 16.0602 21.2591L15.4196 22.3136C15.242 22.6064 15.347 22.9777 15.6523 23.1467C15.7525 23.2015 15.8625 23.2277 15.9727 23.2277C16.1929 23.2277 16.4081 23.1182 16.5257 22.923L17.1663 21.8685C17.344 21.5781 17.2414 21.2044 16.9336 21.0353C16.856 20.9949 16.7759 20.9687 16.6934 20.9591ZM29.0254 20.9591C28.9428 20.9687 28.8602 20.9949 28.7852 21.0353C28.4773 21.2044 28.3748 21.5781 28.5524 21.8708L29.193 22.9254C29.3107 23.1205 29.5259 23.23 29.7461 23.23C29.8562 23.23 29.9663 23.2015 30.0664 23.1467C30.3742 22.9777 30.4768 22.6064 30.2991 22.316L29.6585 21.2615C29.5259 21.0425 29.2731 20.9306 29.0254 20.9591ZM26.1826 22.147C26.1 22.1351 26.0125 22.1398 25.9249 22.1636C25.5845 22.2493 25.3818 22.5826 25.4719 22.9087L25.8048 24.087C25.8824 24.3584 26.1401 24.5368 26.4228 24.5368C26.4804 24.5368 26.5355 24.5297 26.5905 24.5178C26.9309 24.4297 27.1361 24.0965 27.0435 23.7704L26.7131 22.5945C26.6431 22.3493 26.4278 22.1803 26.1826 22.147ZM19.5386 22.147C19.2909 22.1803 19.0757 22.3493 19.0056 22.5945L18.6753 23.7728C18.5827 24.0965 18.7879 24.4297 19.1282 24.5178C19.1833 24.5321 19.2384 24.5368 19.2959 24.5368C19.5762 24.5368 19.8365 24.3584 19.914 24.087L20.2468 22.9087C20.3369 22.585 20.1342 22.2493 19.7939 22.1636C19.7063 22.1398 19.6212 22.1374 19.5386 22.147ZM22.8594 22.5469C22.504 22.5469 22.2187 22.8182 22.2187 23.1562V24.375C22.2187 24.713 22.504 24.9844 22.8594 24.9844C23.2147 24.9844 23.5 24.713 23.5 24.375V23.1562C23.5 22.8182 23.2147 22.5469 22.8594 22.5469Z" fill="black"/>
</g>
</g>
<g filter="url(#filter1_d_100_94)">
<mask id="mask1_100_94" style="mask-type:luminance" maskUnits="userSpaceOnUse" x="3" y="0" width="41" height="39">
<path d="M44 0V39H3V0H44Z" fill="white"/>
</mask>
<g mask="url(#mask1_100_94)">
<path fill-rule="evenodd" clip-rule="evenodd" d="M22.8594 1.21875C12.6169 1.21875 4.28125 9.14775 4.28125 18.8906C4.28125 26.5982 9.49882 33.1657 16.7459 35.5746C16.8485 35.6437 16.9711 35.6865 17.1012 35.6889C18.913 36.2531 20.8499 36.5625 22.8594 36.5625C33.1019 36.5625 41.4375 28.6335 41.4375 18.8906C41.4375 9.14775 33.1019 1.21875 22.8594 1.21875ZM22.8594 2.4375C32.3962 2.4375 40.1562 9.81904 40.1562 18.8906C40.1562 25.9961 35.3966 32.0612 28.7526 34.3606C28.6825 34.1631 28.625 33.8703 28.625 33.6703V30.4688C28.625 29.1929 27.9694 27.8027 27.3238 26.8697C30.8797 26.2984 34.9437 24.544 34.9437 17.9956C34.9437 16.2008 34.3531 14.6179 33.1895 13.2849C33.4447 12.4851 33.76 10.7974 32.8791 8.67884C32.8091 8.5098 32.6614 8.37891 32.4787 8.32181C32.2986 8.2694 30.6545 7.86234 27.2411 9.99277C25.8523 9.65238 24.3834 9.47627 22.8594 9.47152C21.3429 9.47627 19.8714 9.65238 18.4876 9.99277C15.0743 7.85996 13.4251 8.26702 13.2475 8.32181C13.0648 8.37891 12.9172 8.5098 12.8471 8.67884C11.9638 10.7998 12.2791 12.4851 12.5393 13.2849C11.3707 14.6179 10.7801 16.2008 10.7801 17.9956C10.7801 24.4845 14.7715 26.2722 18.2974 26.8672C17.8545 27.4004 17.389 28.0908 17.1838 28.793C16.273 29.0334 14.4061 29.0406 13.1524 26.9982C13.1073 26.9196 12.0113 25.0677 9.84918 24.9248C9.50638 24.9273 8.6355 24.9796 8.42529 25.6128C8.19257 26.315 9.00836 26.8482 9.3587 27.0743C9.38123 27.0886 9.41624 27.1077 9.43879 27.1196C9.47883 27.1386 10.4122 27.6052 11.1079 29.2714C11.253 29.707 12.5268 32.9896 17.0987 32.4111C17.1012 32.892 17.0987 33.1348 17.0937 33.3276V33.668C17.0937 33.8655 17.0312 34.1631 16.9611 34.3559C10.3172 32.0565 5.5625 25.9912 5.5625 18.8906C5.5625 9.81904 13.3226 2.4375 22.8594 2.4375ZM22.7042 4.26801C20.2068 4.29419 17.7369 4.92023 15.5623 6.10326C15.2545 6.26754 15.1468 6.64121 15.322 6.93164C15.4397 7.1292 15.6548 7.24108 15.8801 7.24108C15.9876 7.24108 16.0953 7.21488 16.1954 7.16016C18.8455 5.72241 21.9735 5.18445 24.9989 5.64624C25.3468 5.70099 25.6746 5.47486 25.7322 5.1416C25.7872 4.80835 25.5495 4.49652 25.2017 4.44177C24.3734 4.31561 23.5375 4.25848 22.7042 4.26801ZM27.7642 5.11066C27.5164 5.12018 27.2837 5.27014 27.1936 5.5058C27.0685 5.82239 27.2361 6.1723 27.569 6.29131C28.0244 6.45316 28.4748 6.63884 28.9153 6.84834C29.0079 6.89355 29.1055 6.915 29.203 6.915C29.4358 6.915 29.661 6.79356 29.7761 6.57936C29.9338 6.2818 29.8062 5.91284 29.4909 5.7605C29.0129 5.53199 28.5149 5.32489 28.0169 5.14874C27.9343 5.12018 27.8493 5.10827 27.7642 5.11066ZM31.8181 9.47389C32.5063 11.3996 32.0358 12.7945 31.8657 13.1896C31.7731 13.4086 31.8206 13.6586 31.9883 13.8323C33.0969 14.9868 33.6599 16.3865 33.6599 17.9956C33.6599 24.1727 29.8112 25.4128 26.0425 25.8104C25.7897 25.8365 25.577 26.0032 25.502 26.2341C25.4244 26.465 25.502 26.7173 25.6947 26.8768C26.2001 27.2886 27.3437 29.0762 27.3437 30.4688V33.6703C27.3437 33.6822 27.3462 34.2131 27.529 34.7296C26.0425 35.1271 24.4784 35.3438 22.8594 35.3438C21.2378 35.3438 19.6712 35.1247 18.1823 34.7272C18.3675 34.2083 18.3725 33.6775 18.3725 33.668L18.375 33.3418C18.3775 33.0657 18.3825 32.692 18.375 31.6851C18.3725 31.4994 18.2849 31.3281 18.1348 31.2115C17.9846 31.0972 17.7869 31.0543 17.5968 31.0924C13.295 31.9851 12.3641 29.031 12.3291 28.9072C12.3216 28.8858 12.3141 28.8668 12.3066 28.8453C11.691 27.36 10.8802 26.6031 10.3972 26.2603C11.4407 26.6102 12.0238 27.579 12.0388 27.6004C13.733 30.3592 16.5307 30.4307 17.9947 29.807C18.1974 29.7213 18.3375 29.5428 18.3675 29.3357C18.4976 28.4645 19.5036 27.3124 20.0116 26.8887C20.2018 26.7292 20.2769 26.4769 20.1993 26.2483C20.1242 26.0174 19.914 25.8508 19.6637 25.8246C15.9051 25.4176 12.0613 24.1679 12.0613 17.9956C12.0613 16.3888 12.6244 14.9868 13.738 13.8323C13.9056 13.6586 13.9532 13.4086 13.8581 13.1896C13.6879 12.7945 13.215 11.4043 13.9006 9.47627C14.4462 9.4929 15.775 9.71429 18.0121 11.1592C18.1673 11.2592 18.365 11.2901 18.5451 11.2425C19.884 10.8878 21.3779 10.6974 22.8594 10.6903C24.3458 10.6974 25.8398 10.8878 27.1811 11.2425C27.3612 11.2901 27.5564 11.2592 27.7116 11.1592C29.9613 9.70716 31.2901 9.49053 31.8181 9.47389ZM16.6934 20.9591C16.4431 20.9306 16.1903 21.0401 16.0602 21.2591L15.4196 22.3136C15.242 22.6064 15.347 22.9777 15.6523 23.1467C15.7525 23.2015 15.8625 23.2277 15.9727 23.2277C16.1929 23.2277 16.4081 23.1182 16.5257 22.923L17.1663 21.8685C17.344 21.5781 17.2414 21.2044 16.9336 21.0353C16.856 20.9949 16.7759 20.9687 16.6934 20.9591ZM29.0254 20.9591C28.9428 20.9687 28.8602 20.9949 28.7852 21.0353C28.4773 21.2044 28.3748 21.5781 28.5524 21.8708L29.193 22.9254C29.3107 23.1205 29.5259 23.23 29.7461 23.23C29.8562 23.23 29.9663 23.2015 30.0664 23.1467C30.3742 22.9777 30.4768 22.6064 30.2991 22.316L29.6585 21.2615C29.5259 21.0425 29.2731 20.9306 29.0254 20.9591ZM26.1826 22.147C26.1 22.1351 26.0125 22.1398 25.9249 22.1636C25.5845 22.2493 25.3818 22.5826 25.4719 22.9087L25.8048 24.087C25.8824 24.3584 26.1401 24.5368 26.4228 24.5368C26.4804 24.5368 26.5355 24.5297 26.5905 24.5178C26.9309 24.4297 27.1361 24.0965 27.0435 23.7704L26.7131 22.5945C26.6431 22.3493 26.4278 22.1803 26.1826 22.147ZM19.5386 22.147C19.2909 22.1803 19.0757 22.3493 19.0056 22.5945L18.6753 23.7728C18.5827 24.0965 18.7879 24.4297 19.1282 24.5178C19.1833 24.5321 19.2384 24.5368 19.2959 24.5368C19.5762 24.5368 19.8365 24.3584 19.914 24.087L20.2468 22.9087C20.3369 22.585 20.1342 22.2493 19.7939 22.1636C19.7063 22.1398 19.6212 22.1374 19.5386 22.147ZM22.8594 22.5469C22.504 22.5469 22.2187 22.8182 22.2187 23.1562V24.375C22.2187 24.713 22.504 24.9844 22.8594 24.9844C23.2147 24.9844 23.5 24.713 23.5 24.375V23.1562C23.5 22.8182 23.2147 22.5469 22.8594 22.5469Z" fill="black"/>
</g>
</g>
<defs>
<filter id="filter0_d_100_94" x="0.28125" y="1.21875" width="45.1562" height="43.3438" filterUnits="userSpaceOnUse" color-interpolation-filters="sRGB">
<feFlood flood-opacity="0" result="BackgroundImageFix"/>
<feColorMatrix in="SourceAlpha" type="matrix" values="0 0 0 0 0 0 0 0 0 0 0 0 0 0 0 0 0 0 127 0" result="hardAlpha"/>
<feOffset dy="4"/>
<feGaussianBlur stdDeviation="2"/>
<feComposite in2="hardAlpha" operator="out"/>
<feColorMatrix type="matrix" values="0 0 0 0 0 0 0 0 0 0 0 0 0 0 0 0 0 0 0.25 0"/>
<feBlend mode="normal" in2="BackgroundImageFix" result="effect1_dropShadow_100_94"/>
<feBlend mode="normal" in="SourceGraphic" in2="effect1_dropShadow_100_94" result="shape"/>
</filter>
<filter id="filter1_d_100_94" x="0.28125" y="1.21875" width="45.1562" height="43.3438" filterUnits="userSpaceOnUse" color-interpolation-filters="sRGB">
<feFlood flood-opacity="0" result="BackgroundImageFix"/>
<feColorMatrix in="SourceAlpha" type="matrix" values="0 0 0 0 0 0 0 0 0 0 0 0 0 0 0 0 0 0 127 0" result="hardAlpha"/>
<feOffset dy="4"/>
<feGaussianBlur stdDeviation="2"/>
<feComposite in2="hardAlpha" operator="out"/>
<feColorMatrix type="matrix" values="0 0 0 0 0 0 0 0 0 0 0 0 0 0 0 0 0 0 0.25 0"/>
<feBlend mode="normal" in2="BackgroundImageFix" result="effect1_dropShadow_100_94"/>
<feBlend mode="normal" in="SourceGraphic" in2="effect1_dropShadow_100_94" result="shape"/>
</filter>
</defs>
</svg>
