<svg width="41" height="39" viewBox="0 0 41 39" fill="none" xmlns="http://www.w3.org/2000/svg">
<mask id="mask0_100_94" style="mask-type:luminance" maskUnits="userSpaceOnUse" x="0" y="0" width="41" height="39">
<path d="M41 0V39H0V0H41Z" fill="white"/>
</mask>
<g mask="url(#mask0_100_94)">
<path fill-rule="evenodd" clip-rule="evenodd" d="M19.8594 1.21875C9.61687 1.21875 1.28125 9.14775 1.28125 18.8906C1.28125 26.5982 6.49882 33.1657 13.7459 35.5746C13.8485 35.6437 13.9711 35.6865 14.1012 35.6889C15.913 36.2531 17.8499 36.5625 19.8594 36.5625C30.1019 36.5625 38.4375 28.6335 38.4375 18.8906C38.4375 9.14775 30.1019 1.21875 19.8594 1.21875ZM19.8594 2.4375C29.3962 2.4375 37.1562 9.81904 37.1562 18.8906C37.1562 25.9961 32.3966 32.0612 25.7526 34.3606C25.6825 34.1631 25.625 33.8703 25.625 33.6703V30.4688C25.625 29.1929 24.9694 27.8027 24.3238 26.8697C27.8797 26.2984 31.9437 24.544 31.9437 17.9956C31.9437 16.2008 31.3531 14.6179 30.1895 13.2849C30.4447 12.4851 30.76 10.7974 29.8791 8.67884C29.8091 8.5098 29.6614 8.37891 29.4787 8.32181C29.2986 8.2694 27.6545 7.86234 24.2411 9.99277C22.8523 9.65238 21.3834 9.47627 19.8594 9.47152C18.3429 9.47627 16.8714 9.65238 15.4876 9.99277C12.0743 7.85996 10.4251 8.26702 10.2475 8.32181C10.0648 8.37891 9.91719 8.5098 9.84711 8.67884C8.96375 10.7998 9.27907 12.4851 9.53929 13.2849C8.37066 14.6179 7.78007 16.2008 7.78007 17.9956C7.78007 24.4845 11.7715 26.2722 15.2974 26.8672C14.8545 27.4004 14.389 28.0908 14.1838 28.793C13.273 29.0334 11.4061 29.0406 10.1524 26.9982C10.1073 26.9196 9.01129 25.0677 6.84918 24.9248C6.50638 24.9273 5.6355 24.9796 5.42529 25.6128C5.19257 26.315 6.00836 26.8482 6.3587 27.0743C6.38123 27.0886 6.41624 27.1077 6.43879 27.1196C6.47883 27.1386 7.41222 27.6052 8.10794 29.2714C8.25304 29.707 9.5268 32.9896 14.0987 32.4111C14.1012 32.892 14.0987 33.1348 14.0937 33.3276V33.668C14.0937 33.8655 14.0312 34.1631 13.9611 34.3559C7.31715 32.0565 2.5625 25.9912 2.5625 18.8906C2.5625 9.81904 10.3226 2.4375 19.8594 2.4375ZM19.7042 4.26801C17.2068 4.29419 14.7369 4.92023 12.5623 6.10326C12.2545 6.26754 12.1468 6.64121 12.322 6.93164C12.4397 7.1292 12.6548 7.24108 12.8801 7.24108C12.9876 7.24108 13.0953 7.21488 13.1954 7.16016C15.8455 5.72241 18.9735 5.18445 21.9989 5.64624C22.3468 5.70099 22.6746 5.47486 22.7322 5.1416C22.7872 4.80835 22.5495 4.49652 22.2017 4.44177C21.3734 4.31561 20.5375 4.25848 19.7042 4.26801ZM24.7642 5.11066C24.5164 5.12018 24.2837 5.27014 24.1936 5.5058C24.0685 5.82239 24.2361 6.1723 24.569 6.29131C25.0244 6.45316 25.4748 6.63884 25.9153 6.84834C26.0079 6.89355 26.1055 6.915 26.203 6.915C26.4358 6.915 26.661 6.79356 26.7761 6.57936C26.9338 6.2818 26.8062 5.91284 26.4909 5.7605C26.0129 5.53199 25.5149 5.32489 25.0169 5.14874C24.9343 5.12018 24.8493 5.10827 24.7642 5.11066ZM28.8181 9.47389C29.5063 11.3996 29.0358 12.7945 28.8657 13.1896C28.7731 13.4086 28.8206 13.6586 28.9883 13.8323C30.0969 14.9868 30.6599 16.3865 30.6599 17.9956C30.6599 24.1727 26.8112 25.4128 23.0425 25.8104C22.7897 25.8365 22.577 26.0032 22.502 26.2341C22.4244 26.465 22.502 26.7173 22.6947 26.8768C23.2001 27.2886 24.3437 29.0762 24.3437 30.4688V33.6703C24.3437 33.6822 24.3462 34.2131 24.529 34.7296C23.0425 35.1271 21.4784 35.3438 19.8594 35.3438C18.2378 35.3438 16.6712 35.1247 15.1823 34.7272C15.3675 34.2083 15.3725 33.6775 15.3725 33.668L15.375 33.3418C15.3775 33.0657 15.3825 32.692 15.375 31.6851C15.3725 31.4994 15.2849 31.3281 15.1348 31.2115C14.9846 31.0972 14.7869 31.0543 14.5968 31.0924C10.295 31.9851 9.36414 29.031 9.3291 28.9072C9.32161 28.8858 9.31411 28.8668 9.30655 28.8453C8.69097 27.36 7.8802 26.6031 7.39723 26.2603C8.44075 26.6102 9.02378 27.579 9.03883 27.6004C10.733 30.3592 13.5307 30.4307 14.9947 29.807C15.1974 29.7213 15.3375 29.5428 15.3675 29.3357C15.4976 28.4645 16.5036 27.3124 17.0116 26.8887C17.2018 26.7292 17.2769 26.4769 17.1993 26.2483C17.1242 26.0174 16.914 25.8508 16.6637 25.8246C12.9051 25.4176 9.06132 24.1679 9.06132 17.9956C9.06132 16.3888 9.62436 14.9868 10.738 13.8323C10.9056 13.6586 10.9532 13.4086 10.8581 13.1896C10.6879 12.7945 10.215 11.4043 10.9006 9.47627C11.4462 9.4929 12.775 9.71429 15.0121 11.1592C15.1673 11.2592 15.365 11.2901 15.5451 11.2425C16.884 10.8878 18.3779 10.6974 19.8594 10.6903C21.3458 10.6974 22.8398 10.8878 24.1811 11.2425C24.3612 11.2901 24.5564 11.2592 24.7116 11.1592C26.9613 9.70716 28.2901 9.49053 28.8181 9.47389ZM13.6934 20.9591C13.4431 20.9306 13.1903 21.0401 13.0602 21.2591L12.4196 22.3136C12.242 22.6064 12.347 22.9777 12.6523 23.1467C12.7525 23.2015 12.8625 23.2277 12.9727 23.2277C13.1929 23.2277 13.4081 23.1182 13.5257 22.923L14.1663 21.8685C14.344 21.5781 14.2414 21.2044 13.9336 21.0353C13.856 20.9949 13.7759 20.9687 13.6934 20.9591ZM26.0254 20.9591C25.9428 20.9687 25.8602 20.9949 25.7852 21.0353C25.4773 21.2044 25.3748 21.5781 25.5524 21.8708L26.193 22.9254C26.3107 23.1205 26.5259 23.23 26.7461 23.23C26.8562 23.23 26.9663 23.2015 27.0664 23.1467C27.3742 22.9777 27.4768 22.6064 27.2991 22.316L26.6585 21.2615C26.5259 21.0425 26.2731 20.9306 26.0254 20.9591ZM23.1826 22.147C23.1 22.1351 23.0125 22.1398 22.9249 22.1636C22.5845 22.2493 22.3818 22.5826 22.4719 22.9087L22.8048 24.087C22.8824 24.3584 23.1401 24.5368 23.4228 24.5368C23.4804 24.5368 23.5355 24.5297 23.5905 24.5178C23.9309 24.4297 24.1361 24.0965 24.0435 23.7704L23.7131 22.5945C23.6431 22.3493 23.4278 22.1803 23.1826 22.147ZM16.5386 22.147C16.2909 22.1803 16.0757 22.3493 16.0056 22.5945L15.6753 23.7728C15.5827 24.0965 15.7879 24.4297 16.1282 24.5178C16.1833 24.5321 16.2384 24.5368 16.2959 24.5368C16.5762 24.5368 16.8365 24.3584 16.914 24.087L17.2468 22.9087C17.3369 22.585 17.1342 22.2493 16.7939 22.1636C16.7063 22.1398 16.6212 22.1374 16.5386 22.147ZM19.8594 22.5469C19.504 22.5469 19.2187 22.8182 19.2187 23.1562V24.375C19.2187 24.713 19.504 24.9844 19.8594 24.9844C20.2147 24.9844 20.5 24.713 20.5 24.375V23.1562C20.5 22.8182 20.2147 22.5469 19.8594 22.5469Z" fill="black"/>
</g>
<mask id="mask1_100_94" style="mask-type:luminance" maskUnits="userSpaceOnUse" x="0" y="0" width="41" height="39">
<path d="M41 0V39H0V0H41Z" fill="white"/>
</mask>
<g mask="url(#mask1_100_94)">
<path fill-rule="evenodd" clip-rule="evenodd" d="M19.8594 1.21875C9.61687 1.21875 1.28125 9.14775 1.28125 18.8906C1.28125 26.5982 6.49882 33.1657 13.7459 35.5746C13.8485 35.6437 13.9711 35.6865 14.1012 35.6889C15.913 36.2531 17.8499 36.5625 19.8594 36.5625C30.1019 36.5625 38.4375 28.6335 38.4375 18.8906C38.4375 9.14775 30.1019 1.21875 19.8594 1.21875ZM19.8594 2.4375C29.3962 2.4375 37.1562 9.81904 37.1562 18.8906C37.1562 25.9961 32.3966 32.0612 25.7526 34.3606C25.6825 34.1631 25.625 33.8703 25.625 33.6703V30.4688C25.625 29.1929 24.9694 27.8027 24.3238 26.8697C27.8797 26.2984 31.9437 24.544 31.9437 17.9956C31.9437 16.2008 31.3531 14.6179 30.1895 13.2849C30.4447 12.4851 30.76 10.7974 29.8791 8.67884C29.8091 8.5098 29.6614 8.37891 29.4787 8.32181C29.2986 8.2694 27.6545 7.86234 24.2411 9.99277C22.8523 9.65238 21.3834 9.47627 19.8594 9.47152C18.3429 9.47627 16.8714 9.65238 15.4876 9.99277C12.0743 7.85996 10.4251 8.26702 10.2475 8.32181C10.0648 8.37891 9.91719 8.5098 9.84711 8.67884C8.96375 10.7998 9.27907 12.4851 9.53929 13.2849C8.37066 14.6179 7.78007 16.2008 7.78007 17.9956C7.78007 24.4845 11.7715 26.2722 15.2974 26.8672C14.8545 27.4004 14.389 28.0908 14.1838 28.793C13.273 29.0334 11.4061 29.0406 10.1524 26.9982C10.1073 26.9196 9.01129 25.0677 6.84918 24.9248C6.50638 24.9273 5.6355 24.9796 5.42529 25.6128C5.19257 26.315 6.00836 26.8482 6.3587 27.0743C6.38123 27.0886 6.41624 27.1077 6.43879 27.1196C6.47883 27.1386 7.41222 27.6052 8.10794 29.2714C8.25304 29.707 9.5268 32.9896 14.0987 32.4111C14.1012 32.892 14.0987 33.1348 14.0937 33.3276V33.668C14.0937 33.8655 14.0312 34.1631 13.9611 34.3559C7.31715 32.0565 2.5625 25.9912 2.5625 18.8906C2.5625 9.81904 10.3226 2.4375 19.8594 2.4375ZM19.7042 4.26801C17.2068 4.29419 14.7369 4.92023 12.5623 6.10326C12.2545 6.26754 12.1468 6.64121 12.322 6.93164C12.4397 7.1292 12.6548 7.24108 12.8801 7.24108C12.9876 7.24108 13.0953 7.21488 13.1954 7.16016C15.8455 5.72241 18.9735 5.18445 21.9989 5.64624C22.3468 5.70099 22.6746 5.47486 22.7322 5.1416C22.7872 4.80835 22.5495 4.49652 22.2017 4.44177C21.3734 4.31561 20.5375 4.25848 19.7042 4.26801ZM24.7642 5.11066C24.5164 5.12018 24.2837 5.27014 24.1936 5.5058C24.0685 5.82239 24.2361 6.1723 24.569 6.29131C25.0244 6.45316 25.4748 6.63884 25.9153 6.84834C26.0079 6.89355 26.1055 6.915 26.203 6.915C26.4358 6.915 26.661 6.79356 26.7761 6.57936C26.9338 6.2818 26.8062 5.91284 26.4909 5.7605C26.0129 5.53199 25.5149 5.32489 25.0169 5.14874C24.9343 5.12018 24.8493 5.10827 24.7642 5.11066ZM28.8181 9.47389C29.5063 11.3996 29.0358 12.7945 28.8657 13.1896C28.7731 13.4086 28.8206 13.6586 28.9883 13.8323C30.0969 14.9868 30.6599 16.3865 30.6599 17.9956C30.6599 24.1727 26.8112 25.4128 23.0425 25.8104C22.7897 25.8365 22.577 26.0032 22.502 26.2341C22.4244 26.465 22.502 26.7173 22.6947 26.8768C23.2001 27.2886 24.3437 29.0762 24.3437 30.4688V33.6703C24.3437 33.6822 24.3462 34.2131 24.529 34.7296C23.0425 35.1271 21.4784 35.3438 19.8594 35.3438C18.2378 35.3438 16.6712 35.1247 15.1823 34.7272C15.3675 34.2083 15.3725 33.6775 15.3725 33.668L15.375 33.3418C15.3775 33.0657 15.3825 32.692 15.375 31.6851C15.3725 31.4994 15.2849 31.3281 15.1348 31.2115C14.9846 31.0972 14.7869 31.0543 14.5968 31.0924C10.295 31.9851 9.36414 29.031 9.3291 28.9072C9.32161 28.8858 9.31411 28.8668 9.30655 28.8453C8.69097 27.36 7.8802 26.6031 7.39723 26.2603C8.44075 26.6102 9.02378 27.579 9.03883 27.6004C10.733 30.3592 13.5307 30.4307 14.9947 29.807C15.1974 29.7213 15.3375 29.5428 15.3675 29.3357C15.4976 28.4645 16.5036 27.3124 17.0116 26.8887C17.2018 26.7292 17.2769 26.4769 17.1993 26.2483C17.1242 26.0174 16.914 25.8508 16.6637 25.8246C12.9051 25.4176 9.06132 24.1679 9.06132 17.9956C9.06132 16.3888 9.62436 14.9868 10.738 13.8323C10.9056 13.6586 10.9532 13.4086 10.8581 13.1896C10.6879 12.7945 10.215 11.4043 10.9006 9.47627C11.4462 9.4929 12.775 9.71429 15.0121 11.1592C15.1673 11.2592 15.365 11.2901 15.5451 11.2425C16.884 10.8878 18.3779 10.6974 19.8594 10.6903C21.3458 10.6974 22.8398 10.8878 24.1811 11.2425C24.3612 11.2901 24.5564 11.2592 24.7116 11.1592C26.9613 9.70716 28.2901 9.49053 28.8181 9.47389ZM13.6934 20.9591C13.4431 20.9306 13.1903 21.0401 13.0602 21.2591L12.4196 22.3136C12.242 22.6064 12.347 22.9777 12.6523 23.1467C12.7525 23.2015 12.8625 23.2277 12.9727 23.2277C13.1929 23.2277 13.4081 23.1182 13.5257 22.923L14.1663 21.8685C14.344 21.5781 14.2414 21.2044 13.9336 21.0353C13.856 20.9949 13.7759 20.9687 13.6934 20.9591ZM26.0254 20.9591C25.9428 20.9687 25.8602 20.9949 25.7852 21.0353C25.4773 21.2044 25.3748 21.5781 25.5524 21.8708L26.193 22.9254C26.3107 23.1205 26.5259 23.23 26.7461 23.23C26.8562 23.23 26.9663 23.2015 27.0664 23.1467C27.3742 22.9777 27.4768 22.6064 27.2991 22.316L26.6585 21.2615C26.5259 21.0425 26.2731 20.9306 26.0254 20.9591ZM23.1826 22.147C23.1 22.1351 23.0125 22.1398 22.9249 22.1636C22.5845 22.2493 22.3818 22.5826 22.4719 22.9087L22.8048 24.087C22.8824 24.3584 23.1401 24.5368 23.4228 24.5368C23.4804 24.5368 23.5355 24.5297 23.5905 24.5178C23.9309 24.4297 24.1361 24.0965 24.0435 23.7704L23.7131 22.5945C23.6431 22.3493 23.4278 22.1803 23.1826 22.147ZM16.5386 22.147C16.2909 22.1803 16.0757 22.3493 16.0056 22.5945L15.6753 23.7728C15.5827 24.0965 15.7879 24.4297 16.1282 24.5178C16.1833 24.5321 16.2384 24.5368 16.2959 24.5368C16.5762 24.5368 16.8365 24.3584 16.914 24.087L17.2468 22.9087C17.3369 22.585 17.1342 22.2493 16.7939 22.1636C16.7063 22.1398 16.6212 22.1374 16.5386 22.147ZM19.8594 22.5469C19.504 22.5469 19.2187 22.8182 19.2187 23.1562V24.375C19.2187 24.713 19.504 24.9844 19.8594 24.9844C20.2147 24.9844 20.5 24.713 20.5 24.375V23.1562C20.5 22.8182 20.2147 22.5469 19.8594 22.5469Z" fill="black"/>
</g>
</svg>
