<svg width="43" height="43" viewBox="0 0 43 43" fill="none" xmlns="http://www.w3.org/2000/svg">
<g filter="url(#filter0_d_100_8)">
<mask id="mask0_100_8" style="mask-type:luminance" maskUnits="userSpaceOnUse" x="2" y="0" width="39" height="37">
<path d="M41 0V37H2V0H41Z" fill="white"/>
</mask>
<g mask="url(#mask0_100_8)">
<path fill-rule="evenodd" clip-rule="evenodd" d="M16.9275 34.4979C14.6761 34.4979 12.8975 34.5326 11.4529 33.9012C10.4592 33.468 9.66867 32.9662 8.85292 32.385C8.20942 31.9248 7.0443 31.0168 6.3943 30.0124C6.00186 29.405 5.87836 28.7629 5.70205 28.2009C4.48411 24.3121 5.00573 20.1527 4.66042 16.3232C4.50605 14.6142 4.79367 12.8791 4.97567 11.1848C5.01223 10.8348 5.05611 10.4772 5.11948 10.1233C5.31773 9.03262 5.69555 8.04595 6.24236 7.18957C6.60717 6.61991 7.06461 6.0811 7.60167 5.58854C8.40361 4.85547 9.33473 4.26347 10.3707 3.82718C12.1224 3.0895 13.8669 2.90681 15.6479 2.77114L18.7622 2.53989C20.6862 2.39266 22.7036 2.23772 24.7446 2.30787C26.4972 2.36722 28.2034 2.48516 29.7854 2.60387C30.4817 2.65552 31.3502 2.72027 32.2789 3.01781C33.7382 3.48647 35.0617 4.46312 36.0051 5.76891C36.6957 6.72475 37.4229 7.66824 37.7601 9.01489C38.1761 10.6737 38.0079 12.4443 38.0591 13.8519C38.0737 14.2743 38.0899 14.6944 38.111 15.1122C38.1631 16.0942 38.2094 17.0747 38.2402 18.0552C38.3142 20.3947 38.2866 22.3441 38.1541 24.1903C37.9949 26.435 38.081 29.3294 36.1204 31.3105C33.4229 34.0307 29.0314 34.6952 26.3265 34.7284L26.0438 34.7299C26.0438 34.7299 25.5035 34.726 25.2378 34.7214L24.5399 34.7137C23.4495 34.7168 22.355 34.42 21.224 34.5171C20.2564 34.6012 19.3967 34.42 18.5274 34.4578C18.0195 34.4809 17.48 34.4979 16.9275 34.4979ZM23.6843 5.01581C22.1032 5.01581 20.5082 5.13837 18.9653 5.25708L15.8485 5.48833C14.3089 5.60549 12.9512 5.8036 11.5837 6.37941C10.8338 6.69468 10.2358 7.05697 9.66136 7.58191C9.29005 7.92185 8.9878 8.29956 8.74161 8.68343C8.36867 9.26695 8.09811 9.71635 7.95836 10.491C7.90555 10.784 7.87061 11.0815 7.83892 11.3767C7.66505 13.0016 7.56267 14.6566 7.53748 16.2977C7.48223 19.9353 7.58542 23.7933 8.70017 27.3538C8.82123 27.7377 9.01298 28.0229 9.25511 28.399C9.64105 28.9949 10.2277 29.4142 10.7452 29.7842C11.4692 30.2999 12.1281 30.7524 12.8845 31.0808C13.9668 31.5541 15.1587 31.6088 17.0096 31.6088C17.519 31.6088 18.0171 31.5934 18.4851 31.5726C19.3366 31.5356 20.1857 31.4623 21.0355 31.3891C22.2502 31.2858 23.3755 31.1895 24.5854 31.1856C24.7958 31.1856 25.0022 31.1887 25.2085 31.1918L25.3272 31.1933C25.5839 31.1972 25.835 31.2018 26.0852 31.2018L26.3509 31.2002C28.5601 31.174 31.4664 31.0353 33.4652 29.0196C34.8489 27.622 35.0227 25.8314 35.1503 24.0346C35.2762 22.2717 35.3031 20.4009 35.2324 18.1454C35.2015 17.1819 35.156 16.2191 35.1056 15.2548C35.082 14.8216 35.0666 14.3876 35.052 13.9513C35.0049 12.6648 35.0097 11.2742 34.6555 9.86281C34.3947 8.82449 33.9364 8.13691 33.4335 7.44239C32.8152 6.58677 32.3 5.96239 31.386 5.6687C30.7734 5.47214 30.1542 5.41433 29.5473 5.36885C27.9946 5.25245 26.3428 5.0875 24.6382 5.02968C24.3189 5.02043 24.0012 5.01581 23.6843 5.01581Z" fill="black"/>
</g>
</g>
<g filter="url(#filter1_d_100_8)">
<mask id="mask1_100_8" style="mask-type:luminance" maskUnits="userSpaceOnUse" x="2" y="0" width="39" height="37">
<path d="M41 0V37H2V0H41Z" fill="white"/>
</mask>
<g mask="url(#mask1_100_8)">
<path fill-rule="evenodd" clip-rule="evenodd" d="M16.9275 34.4979C14.6761 34.4979 12.8975 34.5326 11.4529 33.9012C10.4592 33.468 9.66867 32.9662 8.85292 32.385C8.20942 31.9248 7.0443 31.0168 6.3943 30.0124C6.00186 29.405 5.87836 28.7629 5.70205 28.2009C4.48411 24.3121 5.00573 20.1527 4.66042 16.3232C4.50605 14.6142 4.79367 12.8791 4.97567 11.1848C5.01223 10.8348 5.05611 10.4772 5.11948 10.1233C5.31773 9.03262 5.69555 8.04595 6.24236 7.18957C6.60717 6.61991 7.06461 6.0811 7.60167 5.58854C8.40361 4.85547 9.33473 4.26347 10.3707 3.82718C12.1224 3.0895 13.8669 2.90681 15.6479 2.77114L18.7622 2.53989C20.6862 2.39266 22.7036 2.23772 24.7446 2.30787C26.4972 2.36722 28.2034 2.48516 29.7854 2.60387C30.4817 2.65552 31.3502 2.72027 32.2789 3.01781C33.7382 3.48647 35.0617 4.46312 36.0051 5.76891C36.6957 6.72475 37.4229 7.66824 37.7601 9.01489C38.1761 10.6737 38.0079 12.4443 38.0591 13.8519C38.0737 14.2743 38.0899 14.6944 38.111 15.1122C38.1631 16.0942 38.2094 17.0747 38.2402 18.0552C38.3142 20.3947 38.2866 22.3441 38.1541 24.1903C37.9949 26.435 38.081 29.3294 36.1204 31.3105C33.4229 34.0307 29.0314 34.6952 26.3265 34.7284L26.0438 34.7299C26.0438 34.7299 25.5035 34.726 25.2378 34.7214L24.5399 34.7137C23.4495 34.7168 22.355 34.42 21.224 34.5171C20.2564 34.6012 19.3967 34.42 18.5274 34.4578C18.0195 34.4809 17.48 34.4979 16.9275 34.4979ZM23.6843 5.01581C22.1032 5.01581 20.5082 5.13837 18.9653 5.25708L15.8485 5.48833C14.3089 5.60549 12.9512 5.8036 11.5837 6.37941C10.8338 6.69468 10.2358 7.05697 9.66136 7.58191C9.29005 7.92185 8.9878 8.29956 8.74161 8.68343C8.36867 9.26695 8.09811 9.71635 7.95836 10.491C7.90555 10.784 7.87061 11.0815 7.83892 11.3767C7.66505 13.0016 7.56267 14.6566 7.53748 16.2977C7.48223 19.9353 7.58542 23.7933 8.70017 27.3538C8.82123 27.7377 9.01298 28.0229 9.25511 28.399C9.64105 28.9949 10.2277 29.4142 10.7452 29.7842C11.4692 30.2999 12.1281 30.7524 12.8845 31.0808C13.9668 31.5541 15.1587 31.6088 17.0096 31.6088C17.519 31.6088 18.0171 31.5934 18.4851 31.5726C19.3366 31.5356 20.1857 31.4623 21.0355 31.3891C22.2502 31.2858 23.3755 31.1895 24.5854 31.1856C24.7958 31.1856 25.0022 31.1887 25.2085 31.1918L25.3272 31.1933C25.5839 31.1972 25.835 31.2018 26.0852 31.2018L26.3509 31.2002C28.5601 31.174 31.4664 31.0353 33.4652 29.0196C34.8489 27.622 35.0227 25.8314 35.1503 24.0346C35.2762 22.2717 35.3031 20.4009 35.2324 18.1454C35.2015 17.1819 35.156 16.2191 35.1056 15.2548C35.082 14.8216 35.0666 14.3876 35.052 13.9513C35.0049 12.6648 35.0097 11.2742 34.6555 9.86281C34.3947 8.82449 33.9364 8.13691 33.4335 7.44239C32.8152 6.58677 32.3 5.96239 31.386 5.6687C30.7734 5.47214 30.1542 5.41433 29.5473 5.36885C27.9946 5.25245 26.3428 5.0875 24.6382 5.02968C24.3189 5.02043 24.0012 5.01581 23.6843 5.01581Z" fill="black"/>
</g>
</g>
<g filter="url(#filter2_d_100_8)">
<mask id="mask2_100_8" style="mask-type:luminance" maskUnits="userSpaceOnUse" x="2" y="0" width="39" height="37">
<path d="M41 0V37H2V0H41Z" fill="white"/>
</mask>
<g mask="url(#mask2_100_8)">
<path d="M31.1241 8.76129C30.5074 8.27335 29.5487 8.19164 28.8052 8.63642C28.2438 8.9725 28.1138 9.75875 28.4225 10.3168C28.9442 11.258 30.7617 11.8893 31.4905 10.8387C31.7335 10.488 31.7928 10.0378 31.6904 9.63002C31.5994 9.2685 31.3947 8.97558 31.1241 8.76129Z" fill="black"/>
</g>
</g>
<g filter="url(#filter3_d_100_8)">
<mask id="mask3_100_8" style="mask-type:luminance" maskUnits="userSpaceOnUse" x="2" y="0" width="39" height="37">
<path d="M41 0V37H2V0H41Z" fill="white"/>
</mask>
<g mask="url(#mask3_100_8)">
<path d="M31.1241 8.76129C30.5074 8.27335 29.5487 8.19164 28.8052 8.63642C28.2438 8.9725 28.1138 9.75875 28.4225 10.3168C28.9442 11.258 30.7617 11.8893 31.4905 10.8387C31.7335 10.488 31.7928 10.0378 31.6904 9.63002C31.5994 9.2685 31.3947 8.97558 31.1241 8.76129Z" fill="black"/>
</g>
</g>
<g filter="url(#filter4_d_100_8)">
<mask id="mask4_100_8" style="mask-type:luminance" maskUnits="userSpaceOnUse" x="2" y="0" width="39" height="37">
<path d="M41 0V37H2V0H41Z" fill="white"/>
</mask>
<g mask="url(#mask4_100_8)">
<path fill-rule="evenodd" clip-rule="evenodd" d="M21.8284 26.0781C20.4422 26.0781 18.9806 26.2407 17.8016 25.6348C17.1134 25.2802 16.5975 24.9442 16.2319 24.6312C16.0872 24.5086 15.6201 24.1147 15.512 24.05C13.5522 22.8837 13.0436 20.0879 13.1159 18.3242C13.1574 17.2435 13.5327 16.3694 13.8074 15.7319C14.1795 14.8586 14.6906 13.6584 15.7427 12.6393C16.9046 11.517 18.489 10.8402 20.3277 10.683C21.0467 10.6213 21.7951 10.6421 22.5328 10.7431C24.1546 10.9651 25.6422 11.5293 26.8334 12.3734C28.3211 13.4271 29.3464 14.9025 29.7194 16.5267C30.3856 19.4373 29.1717 22.7188 26.7667 24.5063C25.4042 25.5207 23.6508 26.0781 21.8284 26.0781ZM21.3522 13.5027C21.1581 13.5027 20.7997 13.6152 20.6072 13.6314C19.4079 13.7339 18.8124 13.7409 18.1022 14.4277C17.4214 15.0867 17.0785 15.9493 16.7576 16.7039C16.5357 17.2204 16.0929 17.8633 16.0686 18.4984C16.0255 19.5491 16.6227 20.6421 17.6432 21.2503C17.8999 21.4022 17.9714 21.7814 18.2144 21.988C18.5199 22.2493 18.9871 22.338 19.3941 22.5484C21.2092 23.4811 23.2632 23.3516 24.8436 22.1776C26.419 21.006 27.1129 19.0912 26.6709 17.1595C26.4352 16.1328 26.0127 15.2232 25.041 14.5348C24.2057 13.9428 23.2673 13.8372 22.0859 13.6746C21.7512 13.6283 21.6813 13.5027 21.3522 13.5027Z" fill="black"/>
</g>
</g>
<g filter="url(#filter5_d_100_8)">
<mask id="mask5_100_8" style="mask-type:luminance" maskUnits="userSpaceOnUse" x="2" y="0" width="39" height="37">
<path d="M41 0V37H2V0H41Z" fill="white"/>
</mask>
<g mask="url(#mask5_100_8)">
<path fill-rule="evenodd" clip-rule="evenodd" d="M21.8284 26.0781C20.4422 26.0781 18.9806 26.2407 17.8016 25.6348C17.1134 25.2802 16.5975 24.9442 16.2319 24.6312C16.0872 24.5086 15.6201 24.1147 15.512 24.05C13.5522 22.8837 13.0436 20.0879 13.1159 18.3242C13.1574 17.2435 13.5327 16.3694 13.8074 15.7319C14.1795 14.8586 14.6906 13.6584 15.7427 12.6393C16.9046 11.517 18.489 10.8402 20.3277 10.683C21.0467 10.6213 21.7951 10.6421 22.5328 10.7431C24.1546 10.9651 25.6422 11.5293 26.8334 12.3734C28.3211 13.4271 29.3464 14.9025 29.7194 16.5267C30.3856 19.4373 29.1717 22.7188 26.7667 24.5063C25.4042 25.5207 23.6508 26.0781 21.8284 26.0781ZM21.3522 13.5027C21.1581 13.5027 20.7997 13.6152 20.6072 13.6314C19.4079 13.7339 18.8124 13.7409 18.1022 14.4277C17.4214 15.0867 17.0785 15.9493 16.7576 16.7039C16.5357 17.2204 16.0929 17.8633 16.0686 18.4984C16.0255 19.5491 16.6227 20.6421 17.6432 21.2503C17.8999 21.4022 17.9714 21.7814 18.2144 21.988C18.5199 22.2493 18.9871 22.338 19.3941 22.5484C21.2092 23.4811 23.2632 23.3516 24.8436 22.1776C26.419 21.006 27.1129 19.0912 26.6709 17.1595C26.4352 16.1328 26.0127 15.2232 25.041 14.5348C24.2057 13.9428 23.2673 13.8372 22.0859 13.6746C21.7512 13.6283 21.6813 13.5027 21.3522 13.5027Z" fill="black"/>
</g>
</g>
<defs>
<filter id="filter0_d_100_8" x="0.616455" y="2.29047" width="41.6641" height="40.4394" filterUnits="userSpaceOnUse" color-interpolation-filters="sRGB">
<feFlood flood-opacity="0" result="BackgroundImageFix"/>
<feColorMatrix in="SourceAlpha" type="matrix" values="0 0 0 0 0 0 0 0 0 0 0 0 0 0 0 0 0 0 127 0" result="hardAlpha"/>
<feOffset dy="4"/>
<feGaussianBlur stdDeviation="2"/>
<feComposite in2="hardAlpha" operator="out"/>
<feColorMatrix type="matrix" values="0 0 0 0 0 0 0 0 0 0 0 0 0 0 0 0 0 0 0.25 0"/>
<feBlend mode="normal" in2="BackgroundImageFix" result="effect1_dropShadow_100_8"/>
<feBlend mode="normal" in="SourceGraphic" in2="effect1_dropShadow_100_8" result="shape"/>
</filter>
<filter id="filter1_d_100_8" x="0.616455" y="2.29047" width="41.6641" height="40.4394" filterUnits="userSpaceOnUse" color-interpolation-filters="sRGB">
<feFlood flood-opacity="0" result="BackgroundImageFix"/>
<feColorMatrix in="SourceAlpha" type="matrix" values="0 0 0 0 0 0 0 0 0 0 0 0 0 0 0 0 0 0 127 0" result="hardAlpha"/>
<feOffset dy="4"/>
<feGaussianBlur stdDeviation="2"/>
<feComposite in2="hardAlpha" operator="out"/>
<feColorMatrix type="matrix" values="0 0 0 0 0 0 0 0 0 0 0 0 0 0 0 0 0 0 0.25 0"/>
<feBlend mode="normal" in2="BackgroundImageFix" result="effect1_dropShadow_100_8"/>
<feBlend mode="normal" in="SourceGraphic" in2="effect1_dropShadow_100_8" result="shape"/>
</filter>
<filter id="filter2_d_100_8" x="24.2593" y="8.34482" width="11.479" height="11.0388" filterUnits="userSpaceOnUse" color-interpolation-filters="sRGB">
<feFlood flood-opacity="0" result="BackgroundImageFix"/>
<feColorMatrix in="SourceAlpha" type="matrix" values="0 0 0 0 0 0 0 0 0 0 0 0 0 0 0 0 0 0 127 0" result="hardAlpha"/>
<feOffset dy="4"/>
<feGaussianBlur stdDeviation="2"/>
<feComposite in2="hardAlpha" operator="out"/>
<feColorMatrix type="matrix" values="0 0 0 0 0 0 0 0 0 0 0 0 0 0 0 0 0 0 0.25 0"/>
<feBlend mode="normal" in2="BackgroundImageFix" result="effect1_dropShadow_100_8"/>
<feBlend mode="normal" in="SourceGraphic" in2="effect1_dropShadow_100_8" result="shape"/>
</filter>
<filter id="filter3_d_100_8" x="24.2593" y="8.34482" width="11.479" height="11.0388" filterUnits="userSpaceOnUse" color-interpolation-filters="sRGB">
<feFlood flood-opacity="0" result="BackgroundImageFix"/>
<feColorMatrix in="SourceAlpha" type="matrix" values="0 0 0 0 0 0 0 0 0 0 0 0 0 0 0 0 0 0 127 0" result="hardAlpha"/>
<feOffset dy="4"/>
<feGaussianBlur stdDeviation="2"/>
<feComposite in2="hardAlpha" operator="out"/>
<feColorMatrix type="matrix" values="0 0 0 0 0 0 0 0 0 0 0 0 0 0 0 0 0 0 0.25 0"/>
<feBlend mode="normal" in2="BackgroundImageFix" result="effect1_dropShadow_100_8"/>
<feBlend mode="normal" in="SourceGraphic" in2="effect1_dropShadow_100_8" result="shape"/>
</filter>
<filter id="filter4_d_100_8" x="9.10938" y="10.6483" width="24.791" height="23.4496" filterUnits="userSpaceOnUse" color-interpolation-filters="sRGB">
<feFlood flood-opacity="0" result="BackgroundImageFix"/>
<feColorMatrix in="SourceAlpha" type="matrix" values="0 0 0 0 0 0 0 0 0 0 0 0 0 0 0 0 0 0 127 0" result="hardAlpha"/>
<feOffset dy="4"/>
<feGaussianBlur stdDeviation="2"/>
<feComposite in2="hardAlpha" operator="out"/>
<feColorMatrix type="matrix" values="0 0 0 0 0 0 0 0 0 0 0 0 0 0 0 0 0 0 0.25 0"/>
<feBlend mode="normal" in2="BackgroundImageFix" result="effect1_dropShadow_100_8"/>
<feBlend mode="normal" in="SourceGraphic" in2="effect1_dropShadow_100_8" result="shape"/>
</filter>
<filter id="filter5_d_100_8" x="9.10938" y="10.6483" width="24.791" height="23.4496" filterUnits="userSpaceOnUse" color-interpolation-filters="sRGB">
<feFlood flood-opacity="0" result="BackgroundImageFix"/>
<feColorMatrix in="SourceAlpha" type="matrix" values="0 0 0 0 0 0 0 0 0 0 0 0 0 0 0 0 0 0 127 0" result="hardAlpha"/>
<feOffset dy="4"/>
<feGaussianBlur stdDeviation="2"/>
<feComposite in2="hardAlpha" operator="out"/>
<feColorMatrix type="matrix" values="0 0 0 0 0 0 0 0 0 0 0 0 0 0 0 0 0 0 0.25 0"/>
<feBlend mode="normal" in2="BackgroundImageFix" result="effect1_dropShadow_100_8"/>
<feBlend mode="normal" in="SourceGraphic" in2="effect1_dropShadow_100_8" result="shape"/>
</filter>
</defs>
</svg>
