<svg width="39" height="37" viewBox="0 0 39 37" fill="none" xmlns="http://www.w3.org/2000/svg">
<mask id="mask0_100_8" style="mask-type:luminance" maskUnits="userSpaceOnUse" x="0" y="0" width="39" height="37">
<path d="M39 0V37H0V0H39Z" fill="white"/>
</mask>
<g mask="url(#mask0_100_8)">
<path fill-rule="evenodd" clip-rule="evenodd" d="M14.9275 34.4979C12.6761 34.4979 10.8975 34.5326 9.45292 33.9012C8.45923 33.468 7.66867 32.9662 6.85292 32.385C6.20942 31.9248 5.0443 31.0168 4.3943 30.0124C4.00186 29.405 3.87836 28.7629 3.70205 28.2009C2.48411 24.3121 3.00573 20.1527 2.66042 16.3232C2.50605 14.6142 2.79367 12.8791 2.97567 11.1848C3.01223 10.8348 3.05611 10.4772 3.11948 10.1233C3.31773 9.03262 3.69555 8.04595 4.24236 7.18957C4.60717 6.61991 5.06461 6.0811 5.60167 5.58854C6.40361 4.85547 7.33473 4.26347 8.37067 3.82718C10.1224 3.0895 11.8669 2.90681 13.6479 2.77114L16.7622 2.53989C18.6862 2.39266 20.7036 2.23772 22.7446 2.30787C24.4972 2.36722 26.2034 2.48516 27.7854 2.60387C28.4817 2.65552 29.3502 2.72027 30.2789 3.01781C31.7382 3.48647 33.0617 4.46312 34.0051 5.76891C34.6957 6.72475 35.4229 7.66824 35.7601 9.01489C36.1761 10.6737 36.0079 12.4443 36.0591 13.8519C36.0737 14.2743 36.0899 14.6944 36.111 15.1122C36.1631 16.0942 36.2094 17.0747 36.2402 18.0552C36.3142 20.3947 36.2866 22.3441 36.1541 24.1903C35.9949 26.435 36.081 29.3294 34.1204 31.3105C31.4229 34.0307 27.0314 34.6952 24.3265 34.7284L24.0438 34.7299C24.0438 34.7299 23.5035 34.726 23.2378 34.7214L22.5399 34.7137C21.4495 34.7168 20.355 34.42 19.224 34.5171C18.2564 34.6012 17.3967 34.42 16.5274 34.4578C16.0195 34.4809 15.48 34.4979 14.9275 34.4979ZM21.6843 5.01581C20.1032 5.01581 18.5082 5.13837 16.9653 5.25708L13.8485 5.48833C12.3089 5.60549 10.9512 5.8036 9.58373 6.37941C8.8338 6.69468 8.2358 7.05697 7.66136 7.58191C7.29005 7.92185 6.9878 8.29956 6.74161 8.68343C6.36867 9.26695 6.09811 9.71635 5.95836 10.491C5.90555 10.784 5.87061 11.0815 5.83892 11.3767C5.66505 13.0016 5.56267 14.6566 5.53748 16.2977C5.48223 19.9353 5.58542 23.7933 6.70017 27.3538C6.82123 27.7377 7.01298 28.0229 7.25511 28.399C7.64105 28.9949 8.22767 29.4142 8.74523 29.7842C9.46917 30.2999 10.1281 30.7524 10.8845 31.0808C11.9668 31.5541 13.1587 31.6088 15.0096 31.6088C15.519 31.6088 16.0171 31.5934 16.4851 31.5726C17.3366 31.5356 18.1857 31.4623 19.0355 31.3891C20.2502 31.2858 21.3755 31.1895 22.5854 31.1856C22.7958 31.1856 23.0022 31.1887 23.2085 31.1918L23.3272 31.1933C23.5839 31.1972 23.835 31.2018 24.0852 31.2018L24.3509 31.2002C26.5601 31.174 29.4664 31.0353 31.4652 29.0196C32.8489 27.622 33.0227 25.8314 33.1503 24.0346C33.2762 22.2717 33.3031 20.4009 33.2324 18.1454C33.2015 17.1819 33.156 16.2191 33.1056 15.2548C33.082 14.8216 33.0666 14.3876 33.052 13.9513C33.0049 12.6648 33.0097 11.2742 32.6555 9.86281C32.3947 8.82449 31.9364 8.13691 31.4335 7.44239C30.8152 6.58677 30.3 5.96239 29.386 5.6687C28.7734 5.47214 28.1542 5.41433 27.5473 5.36885C25.9946 5.25245 24.3428 5.0875 22.6382 5.02968C22.3189 5.02043 22.0012 5.01581 21.6843 5.01581Z" fill="black"/>
</g>
<mask id="mask1_100_8" style="mask-type:luminance" maskUnits="userSpaceOnUse" x="0" y="0" width="39" height="37">
<path d="M39 0V37H0V0H39Z" fill="white"/>
</mask>
<g mask="url(#mask1_100_8)">
<path fill-rule="evenodd" clip-rule="evenodd" d="M14.9275 34.4979C12.6761 34.4979 10.8975 34.5326 9.45292 33.9012C8.45923 33.468 7.66867 32.9662 6.85292 32.385C6.20942 31.9248 5.0443 31.0168 4.3943 30.0124C4.00186 29.405 3.87836 28.7629 3.70205 28.2009C2.48411 24.3121 3.00573 20.1527 2.66042 16.3232C2.50605 14.6142 2.79367 12.8791 2.97567 11.1848C3.01223 10.8348 3.05611 10.4772 3.11948 10.1233C3.31773 9.03262 3.69555 8.04595 4.24236 7.18957C4.60717 6.61991 5.06461 6.0811 5.60167 5.58854C6.40361 4.85547 7.33473 4.26347 8.37067 3.82718C10.1224 3.0895 11.8669 2.90681 13.6479 2.77114L16.7622 2.53989C18.6862 2.39266 20.7036 2.23772 22.7446 2.30787C24.4972 2.36722 26.2034 2.48516 27.7854 2.60387C28.4817 2.65552 29.3502 2.72027 30.2789 3.01781C31.7382 3.48647 33.0617 4.46312 34.0051 5.76891C34.6957 6.72475 35.4229 7.66824 35.7601 9.01489C36.1761 10.6737 36.0079 12.4443 36.0591 13.8519C36.0737 14.2743 36.0899 14.6944 36.111 15.1122C36.1631 16.0942 36.2094 17.0747 36.2402 18.0552C36.3142 20.3947 36.2866 22.3441 36.1541 24.1903C35.9949 26.435 36.081 29.3294 34.1204 31.3105C31.4229 34.0307 27.0314 34.6952 24.3265 34.7284L24.0438 34.7299C24.0438 34.7299 23.5035 34.726 23.2378 34.7214L22.5399 34.7137C21.4495 34.7168 20.355 34.42 19.224 34.5171C18.2564 34.6012 17.3967 34.42 16.5274 34.4578C16.0195 34.4809 15.48 34.4979 14.9275 34.4979ZM21.6843 5.01581C20.1032 5.01581 18.5082 5.13837 16.9653 5.25708L13.8485 5.48833C12.3089 5.60549 10.9512 5.8036 9.58373 6.37941C8.8338 6.69468 8.2358 7.05697 7.66136 7.58191C7.29005 7.92185 6.9878 8.29956 6.74161 8.68343C6.36867 9.26695 6.09811 9.71635 5.95836 10.491C5.90555 10.784 5.87061 11.0815 5.83892 11.3767C5.66505 13.0016 5.56267 14.6566 5.53748 16.2977C5.48223 19.9353 5.58542 23.7933 6.70017 27.3538C6.82123 27.7377 7.01298 28.0229 7.25511 28.399C7.64105 28.9949 8.22767 29.4142 8.74523 29.7842C9.46917 30.2999 10.1281 30.7524 10.8845 31.0808C11.9668 31.5541 13.1587 31.6088 15.0096 31.6088C15.519 31.6088 16.0171 31.5934 16.4851 31.5726C17.3366 31.5356 18.1857 31.4623 19.0355 31.3891C20.2502 31.2858 21.3755 31.1895 22.5854 31.1856C22.7958 31.1856 23.0022 31.1887 23.2085 31.1918L23.3272 31.1933C23.5839 31.1972 23.835 31.2018 24.0852 31.2018L24.3509 31.2002C26.5601 31.174 29.4664 31.0353 31.4652 29.0196C32.8489 27.622 33.0227 25.8314 33.1503 24.0346C33.2762 22.2717 33.3031 20.4009 33.2324 18.1454C33.2015 17.1819 33.156 16.2191 33.1056 15.2548C33.082 14.8216 33.0666 14.3876 33.052 13.9513C33.0049 12.6648 33.0097 11.2742 32.6555 9.86281C32.3947 8.82449 31.9364 8.13691 31.4335 7.44239C30.8152 6.58677 30.3 5.96239 29.386 5.6687C28.7734 5.47214 28.1542 5.41433 27.5473 5.36885C25.9946 5.25245 24.3428 5.0875 22.6382 5.02968C22.3189 5.02043 22.0012 5.01581 21.6843 5.01581Z" fill="black"/>
</g>
<mask id="mask2_100_8" style="mask-type:luminance" maskUnits="userSpaceOnUse" x="0" y="0" width="39" height="37">
<path d="M39 0V37H0V0H39Z" fill="white"/>
</mask>
<g mask="url(#mask2_100_8)">
<path d="M29.1241 8.76129C28.5074 8.27335 27.5487 8.19164 26.8052 8.63642C26.2438 8.9725 26.1138 9.75875 26.4225 10.3168C26.9442 11.258 28.7617 11.8893 29.4905 10.8387C29.7335 10.488 29.7928 10.0378 29.6904 9.63002C29.5994 9.2685 29.3947 8.97558 29.1241 8.76129Z" fill="black"/>
</g>
<mask id="mask3_100_8" style="mask-type:luminance" maskUnits="userSpaceOnUse" x="0" y="0" width="39" height="37">
<path d="M39 0V37H0V0H39Z" fill="white"/>
</mask>
<g mask="url(#mask3_100_8)">
<path d="M29.1241 8.76129C28.5074 8.27335 27.5487 8.19164 26.8052 8.63642C26.2438 8.9725 26.1138 9.75875 26.4225 10.3168C26.9442 11.258 28.7617 11.8893 29.4905 10.8387C29.7335 10.488 29.7928 10.0378 29.6904 9.63002C29.5994 9.2685 29.3947 8.97558 29.1241 8.76129Z" fill="black"/>
</g>
<mask id="mask4_100_8" style="mask-type:luminance" maskUnits="userSpaceOnUse" x="0" y="0" width="39" height="37">
<path d="M39 0V37H0V0H39Z" fill="white"/>
</mask>
<g mask="url(#mask4_100_8)">
<path fill-rule="evenodd" clip-rule="evenodd" d="M19.8284 26.0781C18.4422 26.0781 16.9806 26.2407 15.8016 25.6348C15.1134 25.2802 14.5975 24.9442 14.2319 24.6312C14.0872 24.5086 13.6201 24.1147 13.512 24.05C11.5522 22.8837 11.0436 20.0879 11.1159 18.3242C11.1574 17.2435 11.5327 16.3694 11.8074 15.7319C12.1795 14.8586 12.6906 13.6584 13.7427 12.6393C14.9046 11.517 16.489 10.8402 18.3277 10.683C19.0467 10.6213 19.7951 10.6421 20.5328 10.7431C22.1546 10.9651 23.6422 11.5293 24.8334 12.3734C26.3211 13.4271 27.3464 14.9025 27.7194 16.5267C28.3856 19.4373 27.1717 22.7188 24.7667 24.5063C23.4042 25.5207 21.6508 26.0781 19.8284 26.0781ZM19.3522 13.5027C19.1581 13.5027 18.7997 13.6152 18.6072 13.6314C17.4079 13.7339 16.8124 13.7409 16.1022 14.4277C15.4214 15.0867 15.0785 15.9493 14.7576 16.7039C14.5357 17.2204 14.0929 17.8633 14.0686 18.4984C14.0255 19.5491 14.6227 20.6421 15.6432 21.2503C15.8999 21.4022 15.9714 21.7814 16.2144 21.988C16.5199 22.2493 16.9871 22.338 17.3941 22.5484C19.2092 23.4811 21.2632 23.3516 22.8436 22.1776C24.419 21.006 25.1129 19.0912 24.6709 17.1595C24.4352 16.1328 24.0127 15.2232 23.041 14.5348C22.2057 13.9428 21.2673 13.8372 20.0859 13.6746C19.7512 13.6283 19.6813 13.5027 19.3522 13.5027Z" fill="black"/>
</g>
<mask id="mask5_100_8" style="mask-type:luminance" maskUnits="userSpaceOnUse" x="0" y="0" width="39" height="37">
<path d="M39 0V37H0V0H39Z" fill="white"/>
</mask>
<g mask="url(#mask5_100_8)">
<path fill-rule="evenodd" clip-rule="evenodd" d="M19.8284 26.0781C18.4422 26.0781 16.9806 26.2407 15.8016 25.6348C15.1134 25.2802 14.5975 24.9442 14.2319 24.6312C14.0872 24.5086 13.6201 24.1147 13.512 24.05C11.5522 22.8837 11.0436 20.0879 11.1159 18.3242C11.1574 17.2435 11.5327 16.3694 11.8074 15.7319C12.1795 14.8586 12.6906 13.6584 13.7427 12.6393C14.9046 11.517 16.489 10.8402 18.3277 10.683C19.0467 10.6213 19.7951 10.6421 20.5328 10.7431C22.1546 10.9651 23.6422 11.5293 24.8334 12.3734C26.3211 13.4271 27.3464 14.9025 27.7194 16.5267C28.3856 19.4373 27.1717 22.7188 24.7667 24.5063C23.4042 25.5207 21.6508 26.0781 19.8284 26.0781ZM19.3522 13.5027C19.1581 13.5027 18.7997 13.6152 18.6072 13.6314C17.4079 13.7339 16.8124 13.7409 16.1022 14.4277C15.4214 15.0867 15.0785 15.9493 14.7576 16.7039C14.5357 17.2204 14.0929 17.8633 14.0686 18.4984C14.0255 19.5491 14.6227 20.6421 15.6432 21.2503C15.8999 21.4022 15.9714 21.7814 16.2144 21.988C16.5199 22.2493 16.9871 22.338 17.3941 22.5484C19.2092 23.4811 21.2632 23.3516 22.8436 22.1776C24.419 21.006 25.1129 19.0912 24.6709 17.1595C24.4352 16.1328 24.0127 15.2232 23.041 14.5348C22.2057 13.9428 21.2673 13.8372 20.0859 13.6746C19.7512 13.6283 19.6813 13.5027 19.3522 13.5027Z" fill="black"/>
</g>
</svg>
