<svg width="39" height="37" viewBox="0 0 39 37" fill="none" xmlns="http://www.w3.org/2000/svg">
<mask id="mask0_100_84" style="mask-type:luminance" maskUnits="userSpaceOnUse" x="0" y="0" width="39" height="37">
<path d="M39 0V37H0V0H39Z" fill="white"/>
</mask>
<g mask="url(#mask0_100_84)">
<path fill-rule="evenodd" clip-rule="evenodd" d="M7.02036 2.96001C4.87574 2.96001 3.12036 4.62536 3.12036 6.66001V30.34C3.12036 32.3746 4.87574 34.04 7.02036 34.04H31.9804C34.125 34.04 35.8804 32.3746 35.8804 30.34V6.66001C35.8804 4.62536 34.125 2.96001 31.9804 2.96001H7.02036ZM7.02036 4.44001H31.9804C33.2818 4.44001 34.3204 5.42533 34.3204 6.66001V30.34C34.3204 31.5747 33.2818 32.56 31.9804 32.56H7.02036C5.71895 32.56 4.68036 31.5747 4.68036 30.34V6.66001C4.68036 5.42533 5.71895 4.44001 7.02036 4.44001ZM10.9204 8.14866C10.0661 8.14866 9.29734 8.39094 8.72817 8.8453C8.15893 9.29974 7.80949 9.97854 7.80949 10.7054C7.80949 12.0872 9.07278 13.1643 10.6797 13.2709L10.6827 13.2723C10.7593 13.2971 10.8395 13.3102 10.9204 13.3113C12.6933 13.3113 14.0312 12.1331 14.0312 10.7054C14.0311 10.6924 14.0305 10.6794 14.0297 10.6664C13.9503 9.26022 12.6289 8.14866 10.9204 8.14866ZM10.9204 9.61135C12.0063 9.61135 12.4351 10.0714 12.4819 10.7242C12.4724 11.3578 12.0592 11.8487 10.9204 11.8487C9.83975 11.8487 9.35124 11.3236 9.35124 10.7054C9.35124 10.3963 9.47011 10.1634 9.71986 9.96396C9.9697 9.7646 10.3706 9.61135 10.9204 9.61135ZM8.58036 14.06C8.14957 14.0601 7.80044 14.3913 7.80036 14.8V28.86C7.8006 29.269 8.14988 29.6002 8.58067 29.6H13.2604C13.6912 29.5999 14.0403 29.2687 14.0404 28.86V24.5198V14.8C14.0401 14.391 13.6908 14.0599 13.26 14.06H8.58036ZM15.6004 14.06C15.1696 14.0601 14.8204 14.3913 14.8204 14.8V28.86C14.8206 29.269 15.1699 29.6002 15.6007 29.6H20.2804C20.7112 29.5999 21.0603 29.2687 21.0604 28.86V21.46C21.0604 20.846 21.237 20.2353 21.5479 19.8355C21.8588 19.4356 22.251 19.1957 22.9966 19.2082C23.7656 19.2208 24.1726 19.4707 24.4805 19.8629C24.7884 20.2552 24.9604 20.8434 24.9604 21.46V28.86C24.9606 29.269 25.3099 29.6002 25.7407 29.6H30.4204C30.8512 29.5999 31.2003 29.2687 31.2004 28.86V20.9137C31.2004 18.7222 30.5161 16.9862 29.3433 15.8117C28.1705 14.6372 26.5392 14.06 24.8141 14.06C23.1746 14.06 21.9269 14.5816 21.0604 15.1136V14.8C21.0601 14.391 20.7108 14.0599 20.2801 14.06H15.6004ZM9.36036 15.54H12.4804V24.5198V28.12H9.36036V15.54ZM16.3804 15.54H19.5004V16.6948C19.5005 17.0131 19.7151 17.2957 20.0332 17.3965C20.3513 17.4974 20.7017 17.394 20.9035 17.1399C20.9035 17.1399 22.1283 15.54 24.8141 15.54C26.1817 15.54 27.3545 15.9711 28.2114 16.8292C29.0683 17.6873 29.6404 19.0093 29.6404 20.9137V28.12H26.5204V21.46C26.5204 20.5967 26.3024 19.7041 25.7327 18.9784C25.1632 18.2528 24.2052 17.7475 23.0241 17.7282C21.8369 17.7082 20.8634 18.224 20.2925 18.9581C19.7216 19.6924 19.5004 20.594 19.5004 21.46V28.12H16.3804V15.54Z" fill="black"/>
</g>
<mask id="mask1_100_84" style="mask-type:luminance" maskUnits="userSpaceOnUse" x="0" y="0" width="39" height="37">
<path d="M39 0V37H0V0H39Z" fill="white"/>
</mask>
<g mask="url(#mask1_100_84)">
<path fill-rule="evenodd" clip-rule="evenodd" d="M7.02036 2.96001C4.87574 2.96001 3.12036 4.62536 3.12036 6.66001V30.34C3.12036 32.3746 4.87574 34.04 7.02036 34.04H31.9804C34.125 34.04 35.8804 32.3746 35.8804 30.34V6.66001C35.8804 4.62536 34.125 2.96001 31.9804 2.96001H7.02036ZM7.02036 4.44001H31.9804C33.2818 4.44001 34.3204 5.42533 34.3204 6.66001V30.34C34.3204 31.5747 33.2818 32.56 31.9804 32.56H7.02036C5.71895 32.56 4.68036 31.5747 4.68036 30.34V6.66001C4.68036 5.42533 5.71895 4.44001 7.02036 4.44001ZM10.9204 8.14866C10.0661 8.14866 9.29734 8.39094 8.72817 8.8453C8.15893 9.29974 7.80949 9.97854 7.80949 10.7054C7.80949 12.0872 9.07278 13.1643 10.6797 13.2709L10.6827 13.2723C10.7593 13.2971 10.8395 13.3102 10.9204 13.3113C12.6933 13.3113 14.0312 12.1331 14.0312 10.7054C14.0311 10.6924 14.0305 10.6794 14.0297 10.6664C13.9503 9.26022 12.6289 8.14866 10.9204 8.14866ZM10.9204 9.61135C12.0063 9.61135 12.4351 10.0714 12.4819 10.7242C12.4724 11.3578 12.0592 11.8487 10.9204 11.8487C9.83975 11.8487 9.35124 11.3236 9.35124 10.7054C9.35124 10.3963 9.47011 10.1634 9.71986 9.96396C9.9697 9.7646 10.3706 9.61135 10.9204 9.61135ZM8.58036 14.06C8.14957 14.0601 7.80044 14.3913 7.80036 14.8V28.86C7.8006 29.269 8.14988 29.6002 8.58067 29.6H13.2604C13.6912 29.5999 14.0403 29.2687 14.0404 28.86V24.5198V14.8C14.0401 14.391 13.6908 14.0599 13.26 14.06H8.58036ZM15.6004 14.06C15.1696 14.0601 14.8204 14.3913 14.8204 14.8V28.86C14.8206 29.269 15.1699 29.6002 15.6007 29.6H20.2804C20.7112 29.5999 21.0603 29.2687 21.0604 28.86V21.46C21.0604 20.846 21.237 20.2353 21.5479 19.8355C21.8588 19.4356 22.251 19.1957 22.9966 19.2082C23.7656 19.2208 24.1726 19.4707 24.4805 19.8629C24.7884 20.2552 24.9604 20.8434 24.9604 21.46V28.86C24.9606 29.269 25.3099 29.6002 25.7407 29.6H30.4204C30.8512 29.5999 31.2003 29.2687 31.2004 28.86V20.9137C31.2004 18.7222 30.5161 16.9862 29.3433 15.8117C28.1705 14.6372 26.5392 14.06 24.8141 14.06C23.1746 14.06 21.9269 14.5816 21.0604 15.1136V14.8C21.0601 14.391 20.7108 14.0599 20.2801 14.06H15.6004ZM9.36036 15.54H12.4804V24.5198V28.12H9.36036V15.54ZM16.3804 15.54H19.5004V16.6948C19.5005 17.0131 19.7151 17.2957 20.0332 17.3965C20.3513 17.4974 20.7017 17.394 20.9035 17.1399C20.9035 17.1399 22.1283 15.54 24.8141 15.54C26.1817 15.54 27.3545 15.9711 28.2114 16.8292C29.0683 17.6873 29.6404 19.0093 29.6404 20.9137V28.12H26.5204V21.46C26.5204 20.5967 26.3024 19.7041 25.7327 18.9784C25.1632 18.2528 24.2052 17.7475 23.0241 17.7282C21.8369 17.7082 20.8634 18.224 20.2925 18.9581C19.7216 19.6924 19.5004 20.594 19.5004 21.46V28.12H16.3804V15.54Z" fill="black"/>
</g>
</svg>
