<svg width="41" height="43" viewBox="0 0 41 43" fill="none" xmlns="http://www.w3.org/2000/svg">
<g filter="url(#filter0_d_100_84)">
<mask id="mask0_100_84" style="mask-type:luminance" maskUnits="userSpaceOnUse" x="1" y="0" width="39" height="37">
<path d="M40 0V37H1V0H40Z" fill="white"/>
</mask>
<g mask="url(#mask0_100_84)">
<path fill-rule="evenodd" clip-rule="evenodd" d="M8.02036 2.96001C5.87574 2.96001 4.12036 4.62536 4.12036 6.66001V30.34C4.12036 32.3746 5.87574 34.04 8.02036 34.04H32.9804C35.125 34.04 36.8804 32.3746 36.8804 30.34V6.66001C36.8804 4.62536 35.125 2.96001 32.9804 2.96001H8.02036ZM8.02036 4.44001H32.9804C34.2818 4.44001 35.3204 5.42533 35.3204 6.66001V30.34C35.3204 31.5747 34.2818 32.56 32.9804 32.56H8.02036C6.71895 32.56 5.68036 31.5747 5.68036 30.34V6.66001C5.68036 5.42533 6.71895 4.44001 8.02036 4.44001ZM11.9204 8.14866C11.0661 8.14866 10.2973 8.39094 9.72817 8.8453C9.15893 9.29974 8.80949 9.97854 8.80949 10.7054C8.80949 12.0872 10.0728 13.1643 11.6797 13.2709L11.6827 13.2723C11.7593 13.2971 11.8395 13.3102 11.9204 13.3113C13.6933 13.3113 15.0312 12.1331 15.0312 10.7054C15.0311 10.6924 15.0305 10.6794 15.0297 10.6664C14.9503 9.26022 13.6289 8.14866 11.9204 8.14866ZM11.9204 9.61135C13.0063 9.61135 13.4351 10.0714 13.4819 10.7242C13.4724 11.3578 13.0592 11.8487 11.9204 11.8487C10.8397 11.8487 10.3512 11.3236 10.3512 10.7054C10.3512 10.3963 10.4701 10.1634 10.7199 9.96396C10.9697 9.7646 11.3706 9.61135 11.9204 9.61135ZM9.58036 14.06C9.14957 14.0601 8.80044 14.3913 8.80036 14.8V28.86C8.8006 29.269 9.14988 29.6002 9.58067 29.6H14.2604C14.6912 29.5999 15.0403 29.2687 15.0404 28.86V24.5198V14.8C15.0401 14.391 14.6908 14.0599 14.26 14.06H9.58036ZM16.6004 14.06C16.1696 14.0601 15.8204 14.3913 15.8204 14.8V28.86C15.8206 29.269 16.1699 29.6002 16.6007 29.6H21.2804C21.7112 29.5999 22.0603 29.2687 22.0604 28.86V21.46C22.0604 20.846 22.237 20.2353 22.5479 19.8355C22.8588 19.4356 23.251 19.1957 23.9966 19.2082C24.7656 19.2208 25.1726 19.4707 25.4805 19.8629C25.7884 20.2552 25.9604 20.8434 25.9604 21.46V28.86C25.9606 29.269 26.3099 29.6002 26.7407 29.6H31.4204C31.8512 29.5999 32.2003 29.2687 32.2004 28.86V20.9137C32.2004 18.7222 31.5161 16.9862 30.3433 15.8117C29.1705 14.6372 27.5392 14.06 25.8141 14.06C24.1746 14.06 22.9269 14.5816 22.0604 15.1136V14.8C22.0601 14.391 21.7108 14.0599 21.2801 14.06H16.6004ZM10.3604 15.54H13.4804V24.5198V28.12H10.3604V15.54ZM17.3804 15.54H20.5004V16.6948C20.5005 17.0131 20.7151 17.2957 21.0332 17.3965C21.3513 17.4974 21.7017 17.394 21.9035 17.1399C21.9035 17.1399 23.1283 15.54 25.8141 15.54C27.1817 15.54 28.3545 15.9711 29.2114 16.8292C30.0683 17.6873 30.6404 19.0093 30.6404 20.9137V28.12H27.5204V21.46C27.5204 20.5967 27.3024 19.7041 26.7327 18.9784C26.1632 18.2528 25.2052 17.7475 24.0241 17.7282C22.8369 17.7082 21.8634 18.224 21.2925 18.9581C20.7216 19.6924 20.5004 20.594 20.5004 21.46V28.12H17.3804V15.54Z" fill="black"/>
</g>
</g>
<g filter="url(#filter1_d_100_84)">
<mask id="mask1_100_84" style="mask-type:luminance" maskUnits="userSpaceOnUse" x="1" y="0" width="39" height="37">
<path d="M40 0V37H1V0H40Z" fill="white"/>
</mask>
<g mask="url(#mask1_100_84)">
<path fill-rule="evenodd" clip-rule="evenodd" d="M8.02036 2.96001C5.87574 2.96001 4.12036 4.62536 4.12036 6.66001V30.34C4.12036 32.3746 5.87574 34.04 8.02036 34.04H32.9804C35.125 34.04 36.8804 32.3746 36.8804 30.34V6.66001C36.8804 4.62536 35.125 2.96001 32.9804 2.96001H8.02036ZM8.02036 4.44001H32.9804C34.2818 4.44001 35.3204 5.42533 35.3204 6.66001V30.34C35.3204 31.5747 34.2818 32.56 32.9804 32.56H8.02036C6.71895 32.56 5.68036 31.5747 5.68036 30.34V6.66001C5.68036 5.42533 6.71895 4.44001 8.02036 4.44001ZM11.9204 8.14866C11.0661 8.14866 10.2973 8.39094 9.72817 8.8453C9.15893 9.29974 8.80949 9.97854 8.80949 10.7054C8.80949 12.0872 10.0728 13.1643 11.6797 13.2709L11.6827 13.2723C11.7593 13.2971 11.8395 13.3102 11.9204 13.3113C13.6933 13.3113 15.0312 12.1331 15.0312 10.7054C15.0311 10.6924 15.0305 10.6794 15.0297 10.6664C14.9503 9.26022 13.6289 8.14866 11.9204 8.14866ZM11.9204 9.61135C13.0063 9.61135 13.4351 10.0714 13.4819 10.7242C13.4724 11.3578 13.0592 11.8487 11.9204 11.8487C10.8397 11.8487 10.3512 11.3236 10.3512 10.7054C10.3512 10.3963 10.4701 10.1634 10.7199 9.96396C10.9697 9.7646 11.3706 9.61135 11.9204 9.61135ZM9.58036 14.06C9.14957 14.0601 8.80044 14.3913 8.80036 14.8V28.86C8.8006 29.269 9.14988 29.6002 9.58067 29.6H14.2604C14.6912 29.5999 15.0403 29.2687 15.0404 28.86V24.5198V14.8C15.0401 14.391 14.6908 14.0599 14.26 14.06H9.58036ZM16.6004 14.06C16.1696 14.0601 15.8204 14.3913 15.8204 14.8V28.86C15.8206 29.269 16.1699 29.6002 16.6007 29.6H21.2804C21.7112 29.5999 22.0603 29.2687 22.0604 28.86V21.46C22.0604 20.846 22.237 20.2353 22.5479 19.8355C22.8588 19.4356 23.251 19.1957 23.9966 19.2082C24.7656 19.2208 25.1726 19.4707 25.4805 19.8629C25.7884 20.2552 25.9604 20.8434 25.9604 21.46V28.86C25.9606 29.269 26.3099 29.6002 26.7407 29.6H31.4204C31.8512 29.5999 32.2003 29.2687 32.2004 28.86V20.9137C32.2004 18.7222 31.5161 16.9862 30.3433 15.8117C29.1705 14.6372 27.5392 14.06 25.8141 14.06C24.1746 14.06 22.9269 14.5816 22.0604 15.1136V14.8C22.0601 14.391 21.7108 14.0599 21.2801 14.06H16.6004ZM10.3604 15.54H13.4804V24.5198V28.12H10.3604V15.54ZM17.3804 15.54H20.5004V16.6948C20.5005 17.0131 20.7151 17.2957 21.0332 17.3965C21.3513 17.4974 21.7017 17.394 21.9035 17.1399C21.9035 17.1399 23.1283 15.54 25.8141 15.54C27.1817 15.54 28.3545 15.9711 29.2114 16.8292C30.0683 17.6873 30.6404 19.0093 30.6404 20.9137V28.12H27.5204V21.46C27.5204 20.5967 27.3024 19.7041 26.7327 18.9784C26.1632 18.2528 25.2052 17.7475 24.0241 17.7282C22.8369 17.7082 21.8634 18.224 21.2925 18.9581C20.7216 19.6924 20.5004 20.594 20.5004 21.46V28.12H17.3804V15.54Z" fill="black"/>
</g>
</g>
<defs>
<filter id="filter0_d_100_84" x="0.120361" y="2.96001" width="40.76" height="39.08" filterUnits="userSpaceOnUse" color-interpolation-filters="sRGB">
<feFlood flood-opacity="0" result="BackgroundImageFix"/>
<feColorMatrix in="SourceAlpha" type="matrix" values="0 0 0 0 0 0 0 0 0 0 0 0 0 0 0 0 0 0 127 0" result="hardAlpha"/>
<feOffset dy="4"/>
<feGaussianBlur stdDeviation="2"/>
<feComposite in2="hardAlpha" operator="out"/>
<feColorMatrix type="matrix" values="0 0 0 0 0 0 0 0 0 0 0 0 0 0 0 0 0 0 0.25 0"/>
<feBlend mode="normal" in2="BackgroundImageFix" result="effect1_dropShadow_100_84"/>
<feBlend mode="normal" in="SourceGraphic" in2="effect1_dropShadow_100_84" result="shape"/>
</filter>
<filter id="filter1_d_100_84" x="0.120361" y="2.96001" width="40.76" height="39.08" filterUnits="userSpaceOnUse" color-interpolation-filters="sRGB">
<feFlood flood-opacity="0" result="BackgroundImageFix"/>
<feColorMatrix in="SourceAlpha" type="matrix" values="0 0 0 0 0 0 0 0 0 0 0 0 0 0 0 0 0 0 127 0" result="hardAlpha"/>
<feOffset dy="4"/>
<feGaussianBlur stdDeviation="2"/>
<feComposite in2="hardAlpha" operator="out"/>
<feColorMatrix type="matrix" values="0 0 0 0 0 0 0 0 0 0 0 0 0 0 0 0 0 0 0.25 0"/>
<feBlend mode="normal" in2="BackgroundImageFix" result="effect1_dropShadow_100_84"/>
<feBlend mode="normal" in="SourceGraphic" in2="effect1_dropShadow_100_84" result="shape"/>
</filter>
</defs>
</svg>
